<mxfile host="app.diagrams.net" agent="Mozilla/5.0 (Windows NT 10.0; Win64; x64) AppleWebKit/537.36 (KHTML, like Gecko) Chrome/140.0.0.0 Safari/537.36" version="28.1.2">
  <diagram name="Seite-1" id="qjP26n-9z4Dr1NR11TSN">
    <mxGraphModel dx="2316" dy="1171" grid="1" gridSize="10" guides="1" tooltips="1" connect="1" arrows="1" fold="1" page="1" pageScale="1" pageWidth="827" pageHeight="1169" math="0" shadow="0">
      <root>
        <mxCell id="0" />
        <mxCell id="1" parent="0" />
        <mxCell id="tjBaxz1AtbUdlpxrV566-42" style="edgeStyle=orthogonalEdgeStyle;rounded=0;orthogonalLoop=1;jettySize=auto;html=1;entryX=0.5;entryY=0;entryDx=0;entryDy=0;exitX=0;exitY=0;exitDx=0;exitDy=15;exitPerimeter=0;" parent="1" source="tjBaxz1AtbUdlpxrV566-56" target="tjBaxz1AtbUdlpxrV566-1" edge="1">
          <mxGeometry relative="1" as="geometry" />
        </mxCell>
        <mxCell id="979W89I2Z8hW7TRUs4vd-1" value="" style="shape=umlActor;verticalLabelPosition=bottom;verticalAlign=top;html=1;outlineConnect=0;fillColor=#cce5ff;strokeColor=#36393d;" parent="1" vertex="1">
          <mxGeometry x="525.75" y="40" width="30" height="60" as="geometry" />
        </mxCell>
        <mxCell id="tjBaxz1AtbUdlpxrV566-46" style="edgeStyle=orthogonalEdgeStyle;rounded=0;orthogonalLoop=1;jettySize=auto;html=1;exitX=0.5;exitY=1;exitDx=0;exitDy=0;entryX=0;entryY=0.5;entryDx=0;entryDy=0;fillColor=#eeeeee;strokeColor=#36393d;" parent="1" source="tjBaxz1AtbUdlpxrV566-1" target="tjBaxz1AtbUdlpxrV566-45" edge="1">
          <mxGeometry relative="1" as="geometry" />
        </mxCell>
        <mxCell id="tjBaxz1AtbUdlpxrV566-1" value="Vector Store&lt;div&gt;(Index)&lt;/div&gt;" style="shape=datastore;whiteSpace=wrap;html=1;fillColor=#eeeeee;strokeColor=#36393d;" parent="1" vertex="1">
          <mxGeometry x="418.25" y="185" width="70" height="70" as="geometry" />
        </mxCell>
        <mxCell id="tjBaxz1AtbUdlpxrV566-23" style="edgeStyle=orthogonalEdgeStyle;rounded=0;orthogonalLoop=1;jettySize=auto;html=1;exitX=1;exitY=0.5;exitDx=0;exitDy=0;exitPerimeter=0;entryX=0;entryY=0.5;entryDx=0;entryDy=0;fillColor=#eeeeee;strokeColor=#36393d;" parent="1" source="tjBaxz1AtbUdlpxrV566-3" target="tjBaxz1AtbUdlpxrV566-13" edge="1">
          <mxGeometry relative="1" as="geometry">
            <Array as="points">
              <mxPoint x="141.25" y="220" />
              <mxPoint x="141.25" y="135" />
            </Array>
          </mxGeometry>
        </mxCell>
        <mxCell id="tjBaxz1AtbUdlpxrV566-24" style="edgeStyle=orthogonalEdgeStyle;rounded=0;orthogonalLoop=1;jettySize=auto;html=1;exitX=1;exitY=0.5;exitDx=0;exitDy=0;exitPerimeter=0;entryX=0;entryY=0.5;entryDx=0;entryDy=0;fillColor=#eeeeee;strokeColor=#36393d;" parent="1" source="tjBaxz1AtbUdlpxrV566-3" target="tjBaxz1AtbUdlpxrV566-14" edge="1">
          <mxGeometry relative="1" as="geometry">
            <Array as="points">
              <mxPoint x="141.25" y="220" />
              <mxPoint x="141.25" y="175" />
            </Array>
          </mxGeometry>
        </mxCell>
        <mxCell id="tjBaxz1AtbUdlpxrV566-25" style="edgeStyle=orthogonalEdgeStyle;rounded=0;orthogonalLoop=1;jettySize=auto;html=1;exitX=1;exitY=0.5;exitDx=0;exitDy=0;exitPerimeter=0;entryX=0;entryY=0.5;entryDx=0;entryDy=0;fillColor=#eeeeee;strokeColor=#36393d;" parent="1" source="tjBaxz1AtbUdlpxrV566-3" target="tjBaxz1AtbUdlpxrV566-15" edge="1">
          <mxGeometry relative="1" as="geometry" />
        </mxCell>
        <mxCell id="tjBaxz1AtbUdlpxrV566-32" style="edgeStyle=orthogonalEdgeStyle;rounded=0;orthogonalLoop=1;jettySize=auto;html=1;exitX=1;exitY=0.5;exitDx=0;exitDy=0;exitPerimeter=0;entryX=0;entryY=0.5;entryDx=0;entryDy=0;fillColor=#eeeeee;strokeColor=#36393d;" parent="1" source="tjBaxz1AtbUdlpxrV566-3" target="tjBaxz1AtbUdlpxrV566-26" edge="1">
          <mxGeometry relative="1" as="geometry">
            <Array as="points">
              <mxPoint x="141.25" y="220" />
              <mxPoint x="141.25" y="295" />
            </Array>
          </mxGeometry>
        </mxCell>
        <mxCell id="tjBaxz1AtbUdlpxrV566-3" value="Local Files&lt;div&gt;(PDFs)&lt;/div&gt;" style="strokeWidth=2;html=1;shape=mxgraph.flowchart.multi-document;whiteSpace=wrap;fillColor=#eeeeee;strokeColor=#36393d;" parent="1" vertex="1">
          <mxGeometry x="41.25" y="190" width="88" height="60" as="geometry" />
        </mxCell>
        <mxCell id="tjBaxz1AtbUdlpxrV566-28" style="edgeStyle=orthogonalEdgeStyle;rounded=0;orthogonalLoop=1;jettySize=auto;html=1;exitX=1;exitY=0.5;exitDx=0;exitDy=0;entryX=0;entryY=0.5;entryDx=0;entryDy=0;fillColor=#eeeeee;strokeColor=#36393d;" parent="1" source="tjBaxz1AtbUdlpxrV566-13" target="tjBaxz1AtbUdlpxrV566-16" edge="1">
          <mxGeometry relative="1" as="geometry" />
        </mxCell>
        <mxCell id="tjBaxz1AtbUdlpxrV566-13" value="Chunk 1" style="rounded=1;whiteSpace=wrap;html=1;strokeWidth=2;fillWeight=4;hachureGap=8;hachureAngle=45;fillColor=#eeeeee;sketch=1;strokeColor=#36393d;" parent="1" vertex="1">
          <mxGeometry x="161.25" y="120" width="70" height="30" as="geometry" />
        </mxCell>
        <mxCell id="tjBaxz1AtbUdlpxrV566-29" style="edgeStyle=orthogonalEdgeStyle;rounded=0;orthogonalLoop=1;jettySize=auto;html=1;exitX=1;exitY=0.5;exitDx=0;exitDy=0;entryX=0;entryY=0.5;entryDx=0;entryDy=0;fillColor=#eeeeee;strokeColor=#36393d;" parent="1" source="tjBaxz1AtbUdlpxrV566-14" target="tjBaxz1AtbUdlpxrV566-18" edge="1">
          <mxGeometry relative="1" as="geometry" />
        </mxCell>
        <mxCell id="tjBaxz1AtbUdlpxrV566-14" value="Chunk 2" style="rounded=1;whiteSpace=wrap;html=1;strokeWidth=2;fillWeight=4;hachureGap=8;hachureAngle=45;fillColor=#eeeeee;sketch=1;strokeColor=#36393d;" parent="1" vertex="1">
          <mxGeometry x="161.25" y="160" width="70" height="30" as="geometry" />
        </mxCell>
        <mxCell id="tjBaxz1AtbUdlpxrV566-30" style="edgeStyle=orthogonalEdgeStyle;rounded=0;orthogonalLoop=1;jettySize=auto;html=1;exitX=1;exitY=0.5;exitDx=0;exitDy=0;entryX=0;entryY=0.5;entryDx=0;entryDy=0;fillColor=#eeeeee;strokeColor=#36393d;" parent="1" source="tjBaxz1AtbUdlpxrV566-15" target="tjBaxz1AtbUdlpxrV566-19" edge="1">
          <mxGeometry relative="1" as="geometry" />
        </mxCell>
        <mxCell id="tjBaxz1AtbUdlpxrV566-15" value="Chunk 3" style="rounded=1;whiteSpace=wrap;html=1;strokeWidth=2;fillWeight=4;hachureGap=8;hachureAngle=45;fillColor=#eeeeee;sketch=1;strokeColor=#36393d;" parent="1" vertex="1">
          <mxGeometry x="161.25" y="205" width="70" height="30" as="geometry" />
        </mxCell>
        <mxCell id="tjBaxz1AtbUdlpxrV566-37" style="edgeStyle=orthogonalEdgeStyle;rounded=0;orthogonalLoop=1;jettySize=auto;html=1;exitX=1;exitY=0.5;exitDx=0;exitDy=0;entryX=0;entryY=0.5;entryDx=0;entryDy=0;" parent="1" source="tjBaxz1AtbUdlpxrV566-16" target="tjBaxz1AtbUdlpxrV566-1" edge="1">
          <mxGeometry relative="1" as="geometry">
            <Array as="points">
              <mxPoint x="401.25" y="135" />
              <mxPoint x="401.25" y="220" />
            </Array>
          </mxGeometry>
        </mxCell>
        <mxCell id="tjBaxz1AtbUdlpxrV566-16" value="Embedding 1" style="ellipse;whiteSpace=wrap;html=1;strokeWidth=2;fillWeight=2;hachureGap=8;fillColor=#eeeeee;fillStyle=dots;sketch=1;strokeColor=#36393d;" parent="1" vertex="1">
          <mxGeometry x="261.25" y="120" width="120" height="30" as="geometry" />
        </mxCell>
        <mxCell id="tjBaxz1AtbUdlpxrV566-40" style="edgeStyle=orthogonalEdgeStyle;rounded=0;orthogonalLoop=1;jettySize=auto;html=1;exitX=1;exitY=0.5;exitDx=0;exitDy=0;entryX=0;entryY=0.5;entryDx=0;entryDy=0;fillColor=#eeeeee;strokeColor=#36393d;" parent="1" source="tjBaxz1AtbUdlpxrV566-18" target="tjBaxz1AtbUdlpxrV566-1" edge="1">
          <mxGeometry relative="1" as="geometry">
            <Array as="points">
              <mxPoint x="401.25" y="175" />
              <mxPoint x="401.25" y="220" />
            </Array>
          </mxGeometry>
        </mxCell>
        <mxCell id="tjBaxz1AtbUdlpxrV566-18" value="Embedding 2" style="ellipse;whiteSpace=wrap;html=1;strokeWidth=2;fillWeight=2;hachureGap=8;fillColor=#eeeeee;fillStyle=dots;sketch=1;strokeColor=#36393d;" parent="1" vertex="1">
          <mxGeometry x="261.25" y="160" width="120" height="30" as="geometry" />
        </mxCell>
        <mxCell id="tjBaxz1AtbUdlpxrV566-36" style="edgeStyle=orthogonalEdgeStyle;rounded=0;orthogonalLoop=1;jettySize=auto;html=1;exitX=1;exitY=0.5;exitDx=0;exitDy=0;entryX=0;entryY=0.5;entryDx=0;entryDy=0;fillColor=#eeeeee;strokeColor=#36393d;" parent="1" source="tjBaxz1AtbUdlpxrV566-19" target="tjBaxz1AtbUdlpxrV566-1" edge="1">
          <mxGeometry relative="1" as="geometry" />
        </mxCell>
        <mxCell id="tjBaxz1AtbUdlpxrV566-19" value="Embedding 3" style="ellipse;whiteSpace=wrap;html=1;strokeWidth=2;fillWeight=2;hachureGap=8;fillColor=#eeeeee;fillStyle=dots;sketch=1;strokeColor=#36393d;" parent="1" vertex="1">
          <mxGeometry x="261.25" y="205" width="120" height="30" as="geometry" />
        </mxCell>
        <mxCell id="tjBaxz1AtbUdlpxrV566-31" style="edgeStyle=orthogonalEdgeStyle;rounded=0;orthogonalLoop=1;jettySize=auto;html=1;exitX=1;exitY=0.5;exitDx=0;exitDy=0;entryX=0;entryY=0.5;entryDx=0;entryDy=0;fillColor=#eeeeee;strokeColor=#36393d;" parent="1" source="tjBaxz1AtbUdlpxrV566-26" target="tjBaxz1AtbUdlpxrV566-27" edge="1">
          <mxGeometry relative="1" as="geometry" />
        </mxCell>
        <mxCell id="tjBaxz1AtbUdlpxrV566-26" value="Chunk n" style="rounded=1;whiteSpace=wrap;html=1;strokeWidth=2;fillWeight=4;hachureGap=8;hachureAngle=45;fillColor=#eeeeee;sketch=1;strokeColor=#36393d;" parent="1" vertex="1">
          <mxGeometry x="161.25" y="280" width="70" height="30" as="geometry" />
        </mxCell>
        <mxCell id="tjBaxz1AtbUdlpxrV566-39" style="edgeStyle=orthogonalEdgeStyle;rounded=0;orthogonalLoop=1;jettySize=auto;html=1;exitX=1;exitY=0.5;exitDx=0;exitDy=0;entryX=0;entryY=0.5;entryDx=0;entryDy=0;fillColor=#eeeeee;strokeColor=#36393d;" parent="1" source="tjBaxz1AtbUdlpxrV566-27" target="tjBaxz1AtbUdlpxrV566-1" edge="1">
          <mxGeometry relative="1" as="geometry">
            <Array as="points">
              <mxPoint x="401.25" y="295" />
              <mxPoint x="401.25" y="220" />
            </Array>
          </mxGeometry>
        </mxCell>
        <mxCell id="tjBaxz1AtbUdlpxrV566-27" value="Embedding n" style="ellipse;whiteSpace=wrap;html=1;strokeWidth=2;fillWeight=2;hachureGap=8;fillColor=#eeeeee;fillStyle=dots;sketch=1;strokeColor=#36393d;" parent="1" vertex="1">
          <mxGeometry x="261.25" y="280" width="120" height="30" as="geometry" />
        </mxCell>
        <mxCell id="tjBaxz1AtbUdlpxrV566-45" value="Relevant Passages" style="shape=process;whiteSpace=wrap;html=1;backgroundOutline=1;fillColor=#eeeeee;strokeColor=#36393d;" parent="1" vertex="1">
          <mxGeometry x="488.25" y="270" width="100" height="30" as="geometry" />
        </mxCell>
        <mxCell id="tjBaxz1AtbUdlpxrV566-47" value="LLMs" style="ellipse;shape=cloud;whiteSpace=wrap;html=1;fillColor=#cce5ff;strokeColor=#36393d;" parent="1" vertex="1">
          <mxGeometry x="608.25" y="105" width="120" height="80" as="geometry" />
        </mxCell>
        <mxCell id="tjBaxz1AtbUdlpxrV566-48" style="edgeStyle=orthogonalEdgeStyle;rounded=0;orthogonalLoop=1;jettySize=auto;html=1;exitX=1;exitY=0.5;exitDx=0;exitDy=0;entryX=0.55;entryY=0.95;entryDx=0;entryDy=0;entryPerimeter=0;" parent="1" source="tjBaxz1AtbUdlpxrV566-45" target="tjBaxz1AtbUdlpxrV566-47" edge="1">
          <mxGeometry relative="1" as="geometry">
            <Array as="points">
              <mxPoint x="674.25" y="285" />
            </Array>
          </mxGeometry>
        </mxCell>
        <mxCell id="tjBaxz1AtbUdlpxrV566-56" value="Questions" style="shape=callout;whiteSpace=wrap;html=1;perimeter=calloutPerimeter;fillColor=#cce5ff;strokeColor=#36393d;" parent="1" vertex="1">
          <mxGeometry x="493.25" y="130" width="95" height="60" as="geometry" />
        </mxCell>
        <mxCell id="tjBaxz1AtbUdlpxrV566-57" style="edgeStyle=orthogonalEdgeStyle;rounded=0;orthogonalLoop=1;jettySize=auto;html=1;entryX=0.5;entryY=0;entryDx=0;entryDy=0;entryPerimeter=0;" parent="1" source="979W89I2Z8hW7TRUs4vd-1" target="tjBaxz1AtbUdlpxrV566-56" edge="1">
          <mxGeometry relative="1" as="geometry" />
        </mxCell>
        <mxCell id="tjBaxz1AtbUdlpxrV566-59" style="edgeStyle=orthogonalEdgeStyle;rounded=0;orthogonalLoop=1;jettySize=auto;html=1;entryX=0;entryY=0;entryDx=95;entryDy=15;entryPerimeter=0;fillColor=#cce5ff;strokeColor=#36393d;" parent="1" source="tjBaxz1AtbUdlpxrV566-47" target="tjBaxz1AtbUdlpxrV566-56" edge="1">
          <mxGeometry relative="1" as="geometry" />
        </mxCell>
        <mxCell id="tjBaxz1AtbUdlpxrV566-62" style="edgeStyle=orthogonalEdgeStyle;rounded=0;orthogonalLoop=1;jettySize=auto;html=1;entryX=1;entryY=0.3333333333333333;entryDx=0;entryDy=0;entryPerimeter=0;exitX=0.4;exitY=0.1;exitDx=0;exitDy=0;exitPerimeter=0;" parent="1" source="tjBaxz1AtbUdlpxrV566-47" target="979W89I2Z8hW7TRUs4vd-1" edge="1">
          <mxGeometry relative="1" as="geometry">
            <Array as="points">
              <mxPoint x="656.25" y="60" />
            </Array>
          </mxGeometry>
        </mxCell>
        <mxCell id="tjBaxz1AtbUdlpxrV566-74" value="" style="shape=umlActor;verticalLabelPosition=bottom;verticalAlign=top;html=1;outlineConnect=0;fillColor=#cce5ff;strokeColor=#36393d;" parent="1" vertex="1">
          <mxGeometry x="1566" y="120" width="30" height="60" as="geometry" />
        </mxCell>
        <mxCell id="tjBaxz1AtbUdlpxrV566-84" value="" style="rounded=0;whiteSpace=wrap;html=1;fillColor=#eeeeee;strokeColor=#36393d;" parent="1" vertex="1">
          <mxGeometry x="1268.25" y="200" width="7.5" height="85" as="geometry" />
        </mxCell>
        <mxCell id="tjBaxz1AtbUdlpxrV566-89" value="" style="rounded=0;whiteSpace=wrap;html=1;fillColor=#eeeeee;strokeColor=#36393d;" parent="1" vertex="1">
          <mxGeometry x="1071.25" y="200" width="7.5" height="270" as="geometry" />
        </mxCell>
        <mxCell id="tjBaxz1AtbUdlpxrV566-152" style="edgeStyle=orthogonalEdgeStyle;rounded=0;orthogonalLoop=1;jettySize=auto;html=1;exitX=1;exitY=0.75;exitDx=0;exitDy=0;entryX=0;entryY=0.75;entryDx=0;entryDy=0;" parent="1" source="tjBaxz1AtbUdlpxrV566-90" target="tjBaxz1AtbUdlpxrV566-92" edge="1">
          <mxGeometry relative="1" as="geometry">
            <Array as="points">
              <mxPoint x="1260" y="402" />
              <mxPoint x="1260" y="402" />
            </Array>
          </mxGeometry>
        </mxCell>
        <mxCell id="tjBaxz1AtbUdlpxrV566-90" value="" style="rounded=0;whiteSpace=wrap;html=1;fillColor=#eeeeee;strokeColor=#36393d;" parent="1" vertex="1">
          <mxGeometry x="1169.13" y="200" width="7.5" height="270" as="geometry" />
        </mxCell>
        <mxCell id="tjBaxz1AtbUdlpxrV566-117" style="edgeStyle=orthogonalEdgeStyle;rounded=0;orthogonalLoop=1;jettySize=auto;html=1;exitX=0;exitY=0.25;exitDx=0;exitDy=0;entryX=1;entryY=0.25;entryDx=0;entryDy=0;" parent="1" source="tjBaxz1AtbUdlpxrV566-92" target="tjBaxz1AtbUdlpxrV566-84" edge="1">
          <mxGeometry relative="1" as="geometry">
            <Array as="points">
              <mxPoint x="1361" y="221" />
            </Array>
          </mxGeometry>
        </mxCell>
        <mxCell id="tjBaxz1AtbUdlpxrV566-92" value="" style="rounded=0;whiteSpace=wrap;html=1;fillColor=#eeeeee;strokeColor=#36393d;" parent="1" vertex="1">
          <mxGeometry x="1361.25" y="200" width="7.5" height="270" as="geometry" />
        </mxCell>
        <mxCell id="tjBaxz1AtbUdlpxrV566-149" style="edgeStyle=orthogonalEdgeStyle;rounded=0;orthogonalLoop=1;jettySize=auto;html=1;exitX=0;exitY=0.25;exitDx=0;exitDy=0;entryX=1;entryY=0.25;entryDx=0;entryDy=0;" parent="1" edge="1">
          <mxGeometry relative="1" as="geometry">
            <mxPoint x="1577.25" y="262.5000000000002" as="sourcePoint" />
            <mxPoint x="1368.75" y="263.75" as="targetPoint" />
            <Array as="points">
              <mxPoint x="1577" y="264" />
            </Array>
          </mxGeometry>
        </mxCell>
        <mxCell id="tjBaxz1AtbUdlpxrV566-93" value="" style="rounded=0;whiteSpace=wrap;html=1;fillColor=#cce5ff;strokeColor=#36393d;" parent="1" vertex="1">
          <mxGeometry x="1577.25" y="200" width="7.5" height="270" as="geometry" />
        </mxCell>
        <mxCell id="tjBaxz1AtbUdlpxrV566-95" value="1. Question&lt;div&gt;(string)&lt;/div&gt;" style="text;html=1;align=center;verticalAlign=middle;resizable=0;points=[];autosize=1;strokeColor=none;fillColor=none;" parent="1" vertex="1">
          <mxGeometry x="1440" y="229" width="80" height="40" as="geometry" />
        </mxCell>
        <mxCell id="tjBaxz1AtbUdlpxrV566-97" value="1.1. Question&lt;div&gt;(string)&lt;/div&gt;" style="text;html=1;align=center;verticalAlign=middle;resizable=0;points=[];autosize=1;strokeColor=none;fillColor=none;" parent="1" vertex="1">
          <mxGeometry x="1274.75" y="203" width="90" height="40" as="geometry" />
        </mxCell>
        <mxCell id="tjBaxz1AtbUdlpxrV566-103" value="1.2. Question&lt;div&gt;(embedding)&lt;/div&gt;" style="text;html=1;align=center;verticalAlign=middle;resizable=0;points=[];autosize=1;" parent="1" vertex="1">
          <mxGeometry x="1177" y="222" width="90" height="40" as="geometry" />
        </mxCell>
        <mxCell id="tjBaxz1AtbUdlpxrV566-126" style="edgeStyle=orthogonalEdgeStyle;rounded=0;orthogonalLoop=1;jettySize=auto;html=1;entryX=0;entryY=0.5;entryDx=0;entryDy=0;fillColor=#eeeeee;strokeColor=#36393d;exitX=-0.01;exitY=0.52;exitDx=0;exitDy=0;exitPerimeter=0;" parent="1" source="aqOJYriMutAaAsPxaJqA-10" target="tjBaxz1AtbUdlpxrV566-90" edge="1">
          <mxGeometry relative="1" as="geometry">
            <Array as="points">
              <mxPoint x="1127" y="90" />
              <mxPoint x="1110" y="90" />
              <mxPoint x="1110" y="335" />
            </Array>
            <mxPoint x="1090" y="60" as="sourcePoint" />
          </mxGeometry>
        </mxCell>
        <mxCell id="tjBaxz1AtbUdlpxrV566-108" value="1.4.&amp;nbsp; similar&lt;div&gt;embeddings&lt;/div&gt;" style="text;html=1;align=center;verticalAlign=middle;resizable=0;points=[];autosize=1;" parent="1" vertex="1">
          <mxGeometry x="1080.25" y="329" width="90" height="40" as="geometry" />
        </mxCell>
        <mxCell id="tjBaxz1AtbUdlpxrV566-112" value="File Chunks" style="rounded=1;whiteSpace=wrap;html=1;strokeWidth=2;fillWeight=4;hachureGap=8;hachureAngle=45;fillColor=#eeeeee;sketch=1;strokeColor=#36393d;" parent="1" vertex="1">
          <mxGeometry x="1050" y="145" width="50" height="30" as="geometry" />
        </mxCell>
        <mxCell id="tjBaxz1AtbUdlpxrV566-113" value="Embedde&amp;nbsp;&lt;div&gt;Documents&lt;/div&gt;" style="ellipse;whiteSpace=wrap;html=1;strokeWidth=2;fillWeight=2;hachureGap=8;fillColor=#eeeeee;fillStyle=dots;sketch=1;strokeColor=#36393d;" parent="1" vertex="1">
          <mxGeometry x="1112.88" y="140" width="120" height="40" as="geometry" />
        </mxCell>
        <mxCell id="tjBaxz1AtbUdlpxrV566-114" value="Vector Store&lt;div&gt;(Index)&lt;/div&gt;" style="shape=datastore;whiteSpace=wrap;html=1;fillColor=#eeeeee;strokeColor=#36393d;" parent="1" vertex="1">
          <mxGeometry x="1330" y="115" width="70" height="70" as="geometry" />
        </mxCell>
        <mxCell id="tjBaxz1AtbUdlpxrV566-122" value="" style="endArrow=none;dashed=1;html=1;dashPattern=1 3;strokeWidth=2;rounded=0;entryX=0;entryY=0.25;entryDx=0;entryDy=0;exitX=1;exitY=0.25;exitDx=0;exitDy=0;fillColor=#eeeeee;strokeColor=#36393d;" parent="1" source="tjBaxz1AtbUdlpxrV566-89" target="tjBaxz1AtbUdlpxrV566-90" edge="1">
          <mxGeometry width="50" height="50" relative="1" as="geometry">
            <mxPoint x="1110" y="283.5" as="sourcePoint" />
            <mxPoint x="1160" y="233.5" as="targetPoint" />
          </mxGeometry>
        </mxCell>
        <mxCell id="tjBaxz1AtbUdlpxrV566-123" value="" style="endArrow=none;dashed=1;html=1;dashPattern=1 3;strokeWidth=2;rounded=0;entryX=0;entryY=0.5;entryDx=0;entryDy=0;exitX=1;exitY=0.5;exitDx=0;exitDy=0;fillColor=#eeeeee;strokeColor=#36393d;" parent="1" source="tjBaxz1AtbUdlpxrV566-89" target="tjBaxz1AtbUdlpxrV566-90" edge="1">
          <mxGeometry width="50" height="50" relative="1" as="geometry">
            <mxPoint x="1193.13" y="305" as="sourcePoint" />
            <mxPoint x="1307.13" y="305" as="targetPoint" />
          </mxGeometry>
        </mxCell>
        <mxCell id="tjBaxz1AtbUdlpxrV566-124" value="" style="endArrow=none;dashed=1;html=1;dashPattern=1 3;strokeWidth=2;rounded=0;entryX=0;entryY=0.75;entryDx=0;entryDy=0;exitX=1;exitY=0.75;exitDx=0;exitDy=0;fillColor=#eeeeee;strokeColor=#36393d;" parent="1" source="tjBaxz1AtbUdlpxrV566-89" target="tjBaxz1AtbUdlpxrV566-90" edge="1">
          <mxGeometry width="50" height="50" relative="1" as="geometry">
            <mxPoint x="1099" y="283" as="sourcePoint" />
            <mxPoint x="1213" y="283" as="targetPoint" />
          </mxGeometry>
        </mxCell>
        <mxCell id="tjBaxz1AtbUdlpxrV566-140" style="edgeStyle=orthogonalEdgeStyle;rounded=0;orthogonalLoop=1;jettySize=auto;html=1;exitX=0.875;exitY=0.5;exitDx=0;exitDy=0;exitPerimeter=0;entryX=0;entryY=0.5;entryDx=0;entryDy=0;" parent="1" source="tjBaxz1AtbUdlpxrV566-128" target="tjBaxz1AtbUdlpxrV566-93" edge="1">
          <mxGeometry relative="1" as="geometry" />
        </mxCell>
        <mxCell id="tjBaxz1AtbUdlpxrV566-128" value="LLMs" style="ellipse;shape=cloud;whiteSpace=wrap;html=1;fillColor=#cce5ff;strokeColor=#36393d;" parent="1" vertex="1">
          <mxGeometry x="1390.5" y="295" width="120" height="80" as="geometry" />
        </mxCell>
        <mxCell id="tjBaxz1AtbUdlpxrV566-130" value="1.5. relevant chunks&lt;br&gt;&lt;div&gt;(string)&lt;/div&gt;" style="text;html=1;align=center;verticalAlign=middle;resizable=0;points=[];autosize=1;" parent="1" vertex="1">
          <mxGeometry x="1200" y="382" width="130" height="40" as="geometry" />
        </mxCell>
        <mxCell id="tjBaxz1AtbUdlpxrV566-137" value="Embedding Function" style="strokeWidth=2;html=1;shape=mxgraph.flowchart.terminator;whiteSpace=wrap;fillColor=#eeeeee;strokeColor=#36393d;" parent="1" vertex="1">
          <mxGeometry x="1237" y="145" width="70" height="40" as="geometry" />
        </mxCell>
        <mxCell id="tjBaxz1AtbUdlpxrV566-138" style="edgeStyle=orthogonalEdgeStyle;rounded=0;orthogonalLoop=1;jettySize=auto;html=1;exitX=0;exitY=0.5;exitDx=0;exitDy=0;entryX=0.916;entryY=0.153;entryDx=0;entryDy=0;entryPerimeter=0;" parent="1" source="tjBaxz1AtbUdlpxrV566-84" target="tjBaxz1AtbUdlpxrV566-90" edge="1">
          <mxGeometry relative="1" as="geometry">
            <Array as="points">
              <mxPoint x="1260" y="238" />
              <mxPoint x="1260" y="241" />
            </Array>
          </mxGeometry>
        </mxCell>
        <mxCell id="tjBaxz1AtbUdlpxrV566-145" value="1.6 Answers" style="text;html=1;align=center;verticalAlign=middle;resizable=0;points=[];autosize=1;strokeColor=none;fillColor=none;" parent="1" vertex="1">
          <mxGeometry x="1490" y="309" width="90" height="30" as="geometry" />
        </mxCell>
        <mxCell id="tjBaxz1AtbUdlpxrV566-146" style="edgeStyle=orthogonalEdgeStyle;rounded=0;orthogonalLoop=1;jettySize=auto;html=1;exitX=0;exitY=0.25;exitDx=0;exitDy=0;entryX=0.25;entryY=0.25;entryDx=0;entryDy=0;entryPerimeter=0;" parent="1" source="tjBaxz1AtbUdlpxrV566-93" target="tjBaxz1AtbUdlpxrV566-128" edge="1">
          <mxGeometry relative="1" as="geometry">
            <Array as="points">
              <mxPoint x="1577" y="270" />
              <mxPoint x="1421" y="270" />
            </Array>
          </mxGeometry>
        </mxCell>
        <mxCell id="tjBaxz1AtbUdlpxrV566-154" style="edgeStyle=orthogonalEdgeStyle;rounded=0;orthogonalLoop=1;jettySize=auto;html=1;exitX=1;exitY=0.75;exitDx=0;exitDy=0;entryX=0.16;entryY=0.55;entryDx=0;entryDy=0;entryPerimeter=0;" parent="1" source="tjBaxz1AtbUdlpxrV566-92" target="tjBaxz1AtbUdlpxrV566-128" edge="1">
          <mxGeometry relative="1" as="geometry" />
        </mxCell>
        <mxCell id="tjBaxz1AtbUdlpxrV566-188" value="Local Processing" style="swimlane;startSize=20;horizontal=1;childLayout=flowLayout;flowOrientation=north;resizable=0;interRankCellSpacing=50;containerType=tree;fontSize=12;fillColor=#eeeeee;strokeColor=#36393d;" parent="1" vertex="1">
          <mxGeometry x="129.25" y="492" width="140" height="170" as="geometry" />
        </mxCell>
        <mxCell id="tjBaxz1AtbUdlpxrV566-189" value="User Question" style="whiteSpace=wrap;html=1;fillColor=#cce5ff;strokeColor=#36393d;" parent="tjBaxz1AtbUdlpxrV566-188" vertex="1">
          <mxGeometry x="25" y="40" width="90" height="20" as="geometry" />
        </mxCell>
        <mxCell id="tjBaxz1AtbUdlpxrV566-190" value="Relevant Chunks" style="whiteSpace=wrap;html=1;fillColor=#eeeeee;strokeColor=#36393d;" parent="tjBaxz1AtbUdlpxrV566-188" vertex="1">
          <mxGeometry x="20" y="110" width="100" height="40" as="geometry" />
        </mxCell>
        <mxCell id="tjBaxz1AtbUdlpxrV566-191" value="" style="html=1;rounded=1;curved=0;sourcePerimeterSpacing=0;targetPerimeterSpacing=0;startSize=6;endSize=6;noEdgeStyle=1;orthogonal=1;dashed=1;" parent="tjBaxz1AtbUdlpxrV566-188" source="tjBaxz1AtbUdlpxrV566-189" target="tjBaxz1AtbUdlpxrV566-190" edge="1">
          <mxGeometry relative="1" as="geometry">
            <Array as="points">
              <mxPoint x="70" y="72" />
              <mxPoint x="70" y="98" />
            </Array>
          </mxGeometry>
        </mxCell>
        <mxCell id="tjBaxz1AtbUdlpxrV566-198" value="Answer Generation" style="swimlane;startSize=20;horizontal=1;childLayout=flowLayout;flowOrientation=north;resizable=0;interRankCellSpacing=50;containerType=tree;fontSize=12;fillColor=#cce5ff;strokeColor=#36393d;" parent="1" vertex="1">
          <mxGeometry x="301.25" y="492" width="130" height="250" as="geometry" />
        </mxCell>
        <mxCell id="tjBaxz1AtbUdlpxrV566-206" style="edgeStyle=orthogonalEdgeStyle;rounded=0;orthogonalLoop=1;jettySize=auto;html=1;exitX=0.5;exitY=1;exitDx=0;exitDy=0;noEdgeStyle=1;orthogonal=1;dashed=1;" parent="tjBaxz1AtbUdlpxrV566-198" source="tjBaxz1AtbUdlpxrV566-199" target="tjBaxz1AtbUdlpxrV566-205" edge="1">
          <mxGeometry relative="1" as="geometry">
            <Array as="points">
              <mxPoint x="65" y="72" />
              <mxPoint x="65" y="98" />
            </Array>
          </mxGeometry>
        </mxCell>
        <mxCell id="tjBaxz1AtbUdlpxrV566-199" value="User Question" style="whiteSpace=wrap;html=1;fillColor=#cce5ff;strokeColor=#36393d;" parent="tjBaxz1AtbUdlpxrV566-198" vertex="1">
          <mxGeometry x="20" y="40" width="90" height="20" as="geometry" />
        </mxCell>
        <mxCell id="tjBaxz1AtbUdlpxrV566-213" style="edgeStyle=orthogonalEdgeStyle;rounded=0;orthogonalLoop=1;jettySize=auto;html=1;exitX=0.55;exitY=0.95;exitDx=0;exitDy=0;exitPerimeter=0;entryX=0.5;entryY=0;entryDx=0;entryDy=0;noEdgeStyle=1;orthogonal=1;dashed=1;" parent="tjBaxz1AtbUdlpxrV566-198" source="tjBaxz1AtbUdlpxrV566-205" target="tjBaxz1AtbUdlpxrV566-212" edge="1">
          <mxGeometry relative="1" as="geometry">
            <Array as="points">
              <mxPoint x="65" y="162" />
              <mxPoint x="65" y="188" />
            </Array>
          </mxGeometry>
        </mxCell>
        <mxCell id="tjBaxz1AtbUdlpxrV566-205" value="LLMs" style="ellipse;shape=cloud;whiteSpace=wrap;html=1;fillColor=#cce5ff;strokeColor=#36393d;" parent="tjBaxz1AtbUdlpxrV566-198" vertex="1">
          <mxGeometry x="30" y="110" width="70" height="40" as="geometry" />
        </mxCell>
        <mxCell id="tjBaxz1AtbUdlpxrV566-212" value="Generated Answer" style="whiteSpace=wrap;html=1;fillColor=#cce5ff;strokeColor=#36393d;" parent="tjBaxz1AtbUdlpxrV566-198" vertex="1">
          <mxGeometry x="20" y="200" width="90" height="30" as="geometry" />
        </mxCell>
        <mxCell id="tjBaxz1AtbUdlpxrV566-214" value="Followup Questions" style="swimlane;startSize=20;horizontal=1;childLayout=flowLayout;flowOrientation=north;resizable=0;interRankCellSpacing=50;containerType=tree;fontSize=12;fillColor=#cce5ff;strokeColor=#36393d;" parent="1" vertex="1">
          <mxGeometry x="473.25" y="492" width="130" height="250" as="geometry" />
        </mxCell>
        <mxCell id="tjBaxz1AtbUdlpxrV566-215" style="edgeStyle=orthogonalEdgeStyle;rounded=0;orthogonalLoop=1;jettySize=auto;html=1;exitX=0.5;exitY=1;exitDx=0;exitDy=0;noEdgeStyle=1;orthogonal=1;dashed=1;" parent="tjBaxz1AtbUdlpxrV566-214" source="tjBaxz1AtbUdlpxrV566-216" target="tjBaxz1AtbUdlpxrV566-218" edge="1">
          <mxGeometry relative="1" as="geometry">
            <Array as="points">
              <mxPoint x="65" y="72" />
              <mxPoint x="65" y="98" />
            </Array>
          </mxGeometry>
        </mxCell>
        <mxCell id="tjBaxz1AtbUdlpxrV566-216" value="User Question" style="whiteSpace=wrap;html=1;fillColor=#cce5ff;strokeColor=#36393d;" parent="tjBaxz1AtbUdlpxrV566-214" vertex="1">
          <mxGeometry x="20" y="40" width="90" height="20" as="geometry" />
        </mxCell>
        <mxCell id="tjBaxz1AtbUdlpxrV566-217" style="edgeStyle=orthogonalEdgeStyle;rounded=0;orthogonalLoop=1;jettySize=auto;html=1;exitX=0.55;exitY=0.95;exitDx=0;exitDy=0;exitPerimeter=0;entryX=0.5;entryY=0;entryDx=0;entryDy=0;noEdgeStyle=1;orthogonal=1;" parent="tjBaxz1AtbUdlpxrV566-214" source="tjBaxz1AtbUdlpxrV566-218" target="tjBaxz1AtbUdlpxrV566-219" edge="1">
          <mxGeometry relative="1" as="geometry">
            <Array as="points">
              <mxPoint x="65" y="162" />
              <mxPoint x="65" y="188" />
            </Array>
          </mxGeometry>
        </mxCell>
        <mxCell id="tjBaxz1AtbUdlpxrV566-218" value="LLMs" style="ellipse;shape=cloud;whiteSpace=wrap;html=1;fillColor=#cce5ff;strokeColor=#36393d;" parent="tjBaxz1AtbUdlpxrV566-214" vertex="1">
          <mxGeometry x="30" y="110" width="70" height="40" as="geometry" />
        </mxCell>
        <mxCell id="tjBaxz1AtbUdlpxrV566-219" value="Followup Questions" style="whiteSpace=wrap;html=1;fillColor=#cce5ff;strokeColor=#36393d;" parent="tjBaxz1AtbUdlpxrV566-214" vertex="1">
          <mxGeometry x="20" y="200" width="90" height="30" as="geometry" />
        </mxCell>
        <mxCell id="aqOJYriMutAaAsPxaJqA-23" style="edgeStyle=orthogonalEdgeStyle;rounded=0;orthogonalLoop=1;jettySize=auto;html=1;entryX=0.5;entryY=0;entryDx=0;entryDy=0;dashed=1;" parent="1" source="tjBaxz1AtbUdlpxrV566-221" target="tjBaxz1AtbUdlpxrV566-189" edge="1">
          <mxGeometry relative="1" as="geometry">
            <Array as="points">
              <mxPoint x="281.25" y="519" />
              <mxPoint x="199.25" y="519" />
            </Array>
          </mxGeometry>
        </mxCell>
        <mxCell id="aqOJYriMutAaAsPxaJqA-24" style="edgeStyle=orthogonalEdgeStyle;rounded=0;orthogonalLoop=1;jettySize=auto;html=1;entryX=0.5;entryY=0;entryDx=0;entryDy=0;dashed=1;" parent="1" source="tjBaxz1AtbUdlpxrV566-221" target="tjBaxz1AtbUdlpxrV566-199" edge="1">
          <mxGeometry relative="1" as="geometry">
            <Array as="points">
              <mxPoint x="280.25" y="519" />
              <mxPoint x="366.25" y="519" />
            </Array>
          </mxGeometry>
        </mxCell>
        <mxCell id="aqOJYriMutAaAsPxaJqA-25" style="edgeStyle=orthogonalEdgeStyle;rounded=0;orthogonalLoop=1;jettySize=auto;html=1;exitX=0.5;exitY=1;exitDx=0;exitDy=0;entryX=0.5;entryY=0;entryDx=0;entryDy=0;dashed=1;" parent="1" source="tjBaxz1AtbUdlpxrV566-221" target="tjBaxz1AtbUdlpxrV566-216" edge="1">
          <mxGeometry relative="1" as="geometry">
            <Array as="points">
              <mxPoint x="46.25" y="519" />
              <mxPoint x="538.25" y="519" />
            </Array>
          </mxGeometry>
        </mxCell>
        <mxCell id="tjBaxz1AtbUdlpxrV566-221" value="" style="shape=actor;whiteSpace=wrap;html=1;" parent="1" vertex="1">
          <mxGeometry x="41.25" y="480" width="40" height="60" as="geometry" />
        </mxCell>
        <mxCell id="tjBaxz1AtbUdlpxrV566-240" style="edgeStyle=orthogonalEdgeStyle;rounded=0;orthogonalLoop=1;jettySize=auto;html=1;exitX=1;exitY=0.5;exitDx=0;exitDy=0;dashed=1;" parent="1" source="tjBaxz1AtbUdlpxrV566-212" target="tjBaxz1AtbUdlpxrV566-218" edge="1">
          <mxGeometry relative="1" as="geometry">
            <Array as="points">
              <mxPoint x="411.25" y="706" />
              <mxPoint x="481.25" y="706" />
              <mxPoint x="481.25" y="624" />
            </Array>
          </mxGeometry>
        </mxCell>
        <mxCell id="tjBaxz1AtbUdlpxrV566-241" style="edgeStyle=orthogonalEdgeStyle;rounded=0;orthogonalLoop=1;jettySize=auto;html=1;exitX=1;exitY=0.5;exitDx=0;exitDy=0;dashed=1;" parent="1" source="tjBaxz1AtbUdlpxrV566-190" target="tjBaxz1AtbUdlpxrV566-205" edge="1">
          <mxGeometry relative="1" as="geometry" />
        </mxCell>
        <mxCell id="tjBaxz1AtbUdlpxrV566-242" value="Template (Prompt)" style="swimlane;whiteSpace=wrap;html=1;fillColor=#eeeeee;strokeColor=#36393d;" parent="1" vertex="1">
          <mxGeometry x="629.25" y="489" width="312" height="114" as="geometry" />
        </mxCell>
        <mxCell id="tjBaxz1AtbUdlpxrV566-229" value="&lt;h1 style=&quot;margin-top: 0px;&quot;&gt;&lt;br&gt;&lt;/h1&gt;&lt;div style=&quot;color: rgb(212, 212, 212); background-color: rgb(30, 30, 30); font-family: Consolas, &amp;quot;Courier New&amp;quot;, monospace; white-space: pre; line-height: 70%;&quot;&gt;&lt;div&gt;&lt;font style=&quot;line-height: 70%; font-size: 8px;&quot;&gt;&lt;span style=&quot;color: rgb(206, 145, 120);&quot;&gt;Based on the original question: &lt;/span&gt;&lt;span style=&quot;color: rgb(86, 156, 214);&quot;&gt;{question}&lt;/span&gt;&lt;/font&gt;&lt;/div&gt;&lt;div&gt;&lt;font style=&quot;line-height: 70%; font-size: 8px;&quot;&gt;&lt;span style=&quot;color: #ce9178;&quot;&gt;&amp;nbsp; &amp;nbsp; And the answer: &lt;/span&gt;&lt;span style=&quot;color: #569cd6;&quot;&gt;{answer}&lt;/span&gt;&lt;/font&gt;&lt;/div&gt;&lt;font style=&quot;font-size: 8px;&quot;&gt;&lt;br&gt;&lt;/font&gt;&lt;div&gt;&lt;span style=&quot;color: #ce9178;&quot;&gt;&lt;font style=&quot;line-height: 70%; font-size: 8px;&quot;&gt;&amp;nbsp; &amp;nbsp; Generate 3 specific, numbered follow-up questions that:&lt;/font&gt;&lt;/span&gt;&lt;/div&gt;&lt;div&gt;&lt;span style=&quot;color: #ce9178;&quot;&gt;&lt;font style=&quot;line-height: 70%; font-size: 8px;&quot;&gt;&amp;nbsp; &amp;nbsp; - Dive deeper into the topic&lt;/font&gt;&lt;/span&gt;&lt;/div&gt;&lt;div&gt;&lt;span style=&quot;color: #ce9178;&quot;&gt;&lt;font style=&quot;line-height: 70%; font-size: 8px;&quot;&gt;&amp;nbsp; &amp;nbsp; - Explore related aspects not fully covered in the original answer&lt;/font&gt;&lt;/span&gt;&lt;/div&gt;&lt;div&gt;&lt;span style=&quot;color: #ce9178;&quot;&gt;&lt;font style=&quot;line-height: 70%; font-size: 8px;&quot;&gt;&amp;nbsp; &amp;nbsp; - Help the user gain more comprehensive understanding&lt;/font&gt;&lt;/span&gt;&lt;/div&gt;&lt;div&gt;&lt;span style=&quot;color: #ce9178;&quot;&gt;&lt;font style=&quot;line-height: 70%; font-size: 8px;&quot;&gt;&amp;nbsp; &amp;nbsp; &lt;/font&gt;&lt;/span&gt;&lt;/div&gt;&lt;div&gt;&lt;span style=&quot;color: rgb(206, 145, 120);&quot;&gt;&lt;font style=&quot;line-height: 70%; font-size: 8px;&quot;&gt;&amp;nbsp; &amp;nbsp; Provide questions in a clear, concise manner.&lt;/font&gt;&lt;/span&gt;&lt;/div&gt;&lt;/div&gt;" style="text;html=1;whiteSpace=wrap;overflow=hidden;rounded=0;" parent="tjBaxz1AtbUdlpxrV566-242" vertex="1">
          <mxGeometry x="1" y="-25" width="308" height="140" as="geometry" />
        </mxCell>
        <mxCell id="tjBaxz1AtbUdlpxrV566-246" style="edgeStyle=orthogonalEdgeStyle;rounded=0;orthogonalLoop=1;jettySize=auto;html=1;exitX=0;exitY=0.5;exitDx=0;exitDy=0;entryX=0.971;entryY=0.5;entryDx=0;entryDy=0;entryPerimeter=0;dashed=1;" parent="1" source="tjBaxz1AtbUdlpxrV566-242" target="tjBaxz1AtbUdlpxrV566-218" edge="1">
          <mxGeometry relative="1" as="geometry">
            <Array as="points">
              <mxPoint x="611.25" y="546" />
              <mxPoint x="611.25" y="619" />
            </Array>
          </mxGeometry>
        </mxCell>
        <mxCell id="tjBaxz1AtbUdlpxrV566-247" value="User Selection" style="swimlane;startSize=20;horizontal=1;childLayout=flowLayout;flowOrientation=north;resizable=0;interRankCellSpacing=50;containerType=tree;fontSize=12;fillColor=#cce5ff;strokeColor=#36393d;" parent="1" vertex="1">
          <mxGeometry x="650.25" y="614" width="270" height="280" as="geometry" />
        </mxCell>
        <mxCell id="tjBaxz1AtbUdlpxrV566-248" value="User selection" style="whiteSpace=wrap;html=1;fillColor=#cce5ff;strokeColor=#36393d;" parent="tjBaxz1AtbUdlpxrV566-247" vertex="1">
          <mxGeometry x="85" y="40" width="100" height="40" as="geometry" />
        </mxCell>
        <mxCell id="tjBaxz1AtbUdlpxrV566-249" value="Choose among these questions" style="whiteSpace=wrap;html=1;fillColor=#cce5ff;strokeColor=#36393d;" parent="tjBaxz1AtbUdlpxrV566-247" vertex="1">
          <mxGeometry x="20" y="130" width="100" height="40" as="geometry" />
        </mxCell>
        <mxCell id="tjBaxz1AtbUdlpxrV566-250" value="" style="html=1;rounded=1;curved=0;sourcePerimeterSpacing=0;targetPerimeterSpacing=0;startSize=6;endSize=6;noEdgeStyle=1;orthogonal=1;" parent="tjBaxz1AtbUdlpxrV566-247" source="tjBaxz1AtbUdlpxrV566-248" target="tjBaxz1AtbUdlpxrV566-249" edge="1">
          <mxGeometry relative="1" as="geometry">
            <Array as="points">
              <mxPoint x="112.5" y="92" />
              <mxPoint x="70" y="118" />
            </Array>
          </mxGeometry>
        </mxCell>
        <mxCell id="tjBaxz1AtbUdlpxrV566-251" value="Exit and enter new questions" style="whiteSpace=wrap;html=1;fillColor=#cce5ff;strokeColor=#36393d;" parent="tjBaxz1AtbUdlpxrV566-247" vertex="1">
          <mxGeometry x="150" y="130" width="100" height="40" as="geometry" />
        </mxCell>
        <mxCell id="tjBaxz1AtbUdlpxrV566-252" value="" style="html=1;rounded=1;curved=0;sourcePerimeterSpacing=0;targetPerimeterSpacing=0;startSize=6;endSize=6;noEdgeStyle=1;orthogonal=1;" parent="tjBaxz1AtbUdlpxrV566-247" source="tjBaxz1AtbUdlpxrV566-248" target="tjBaxz1AtbUdlpxrV566-251" edge="1">
          <mxGeometry relative="1" as="geometry">
            <Array as="points">
              <mxPoint x="157.5" y="92" />
              <mxPoint x="200" y="118" />
            </Array>
          </mxGeometry>
        </mxCell>
        <mxCell id="tjBaxz1AtbUdlpxrV566-253" value="New User Question" style="whiteSpace=wrap;html=1;fillColor=#cce5ff;strokeColor=#36393d;" parent="tjBaxz1AtbUdlpxrV566-247" vertex="1">
          <mxGeometry x="85" y="220" width="100" height="40" as="geometry" />
        </mxCell>
        <mxCell id="tjBaxz1AtbUdlpxrV566-254" value="" style="html=1;rounded=1;curved=0;sourcePerimeterSpacing=0;targetPerimeterSpacing=0;startSize=6;endSize=6;noEdgeStyle=1;orthogonal=1;" parent="tjBaxz1AtbUdlpxrV566-247" source="tjBaxz1AtbUdlpxrV566-249" target="tjBaxz1AtbUdlpxrV566-253" edge="1">
          <mxGeometry relative="1" as="geometry">
            <Array as="points">
              <mxPoint x="70" y="182" />
              <mxPoint x="112.5" y="208" />
            </Array>
          </mxGeometry>
        </mxCell>
        <mxCell id="tjBaxz1AtbUdlpxrV566-255" value="" style="html=1;rounded=1;curved=0;sourcePerimeterSpacing=0;targetPerimeterSpacing=0;startSize=6;endSize=6;noEdgeStyle=1;orthogonal=1;" parent="tjBaxz1AtbUdlpxrV566-247" source="tjBaxz1AtbUdlpxrV566-251" target="tjBaxz1AtbUdlpxrV566-253" edge="1">
          <mxGeometry relative="1" as="geometry">
            <Array as="points">
              <mxPoint x="200" y="182" />
              <mxPoint x="157.5" y="208" />
            </Array>
          </mxGeometry>
        </mxCell>
        <mxCell id="tjBaxz1AtbUdlpxrV566-256" style="edgeStyle=orthogonalEdgeStyle;rounded=0;orthogonalLoop=1;jettySize=auto;html=1;dashed=1;" parent="1" source="tjBaxz1AtbUdlpxrV566-219" target="tjBaxz1AtbUdlpxrV566-248" edge="1">
          <mxGeometry relative="1" as="geometry" />
        </mxCell>
        <mxCell id="aqOJYriMutAaAsPxaJqA-10" value="1.3 &lt;b&gt;Similartiy Seach &lt;/b&gt;among embedding spaces" style="ellipse;shape=umlControl;whiteSpace=wrap;html=1;" parent="1" vertex="1">
          <mxGeometry x="1127.88" y="40" width="90" height="100" as="geometry" />
        </mxCell>
        <mxCell id="aqOJYriMutAaAsPxaJqA-34" style="edgeStyle=orthogonalEdgeStyle;rounded=0;orthogonalLoop=1;jettySize=auto;html=1;exitX=0.5;exitY=0;exitDx=0;exitDy=0;entryX=0.5;entryY=1;entryDx=0;entryDy=0;" parent="1" source="aqOJYriMutAaAsPxaJqA-11" target="aqOJYriMutAaAsPxaJqA-14" edge="1">
          <mxGeometry relative="1" as="geometry" />
        </mxCell>
        <mxCell id="aqOJYriMutAaAsPxaJqA-11" value="EAE Function Block" style="shape=module;align=left;spacingLeft=20;align=center;verticalAlign=top;whiteSpace=wrap;html=1;fillColor=#eeeeee;strokeColor=#36393d;" parent="1" vertex="1">
          <mxGeometry x="406.75" y="798" width="100" height="51" as="geometry" />
        </mxCell>
        <mxCell id="aqOJYriMutAaAsPxaJqA-27" style="edgeStyle=orthogonalEdgeStyle;rounded=0;orthogonalLoop=1;jettySize=auto;html=1;exitX=0.5;exitY=1;exitDx=0;exitDy=0;dashed=1;" parent="1" source="aqOJYriMutAaAsPxaJqA-14" target="tjBaxz1AtbUdlpxrV566-205" edge="1">
          <mxGeometry relative="1" as="geometry">
            <Array as="points">
              <mxPoint x="455.25" y="619" />
            </Array>
          </mxGeometry>
        </mxCell>
        <mxCell id="aqOJYriMutAaAsPxaJqA-28" style="edgeStyle=orthogonalEdgeStyle;rounded=0;orthogonalLoop=1;jettySize=auto;html=1;dashed=1;" parent="1" source="aqOJYriMutAaAsPxaJqA-14" target="tjBaxz1AtbUdlpxrV566-218" edge="1">
          <mxGeometry relative="1" as="geometry">
            <Array as="points">
              <mxPoint x="455.25" y="619" />
            </Array>
          </mxGeometry>
        </mxCell>
        <mxCell id="aqOJYriMutAaAsPxaJqA-14" value="xml representation" style="html=1;dropTarget=0;whiteSpace=wrap;fillColor=#eeeeee;strokeColor=#36393d;" parent="1" vertex="1">
          <mxGeometry x="375.75" y="748" width="162" height="30" as="geometry" />
        </mxCell>
        <mxCell id="aqOJYriMutAaAsPxaJqA-15" value="" style="shape=module;jettyWidth=8;jettyHeight=4;fillColor=#eeeeee;strokeColor=#36393d;" parent="aqOJYriMutAaAsPxaJqA-14" vertex="1">
          <mxGeometry x="1" width="20" height="20" relative="1" as="geometry">
            <mxPoint x="-27" y="7" as="offset" />
          </mxGeometry>
        </mxCell>
        <mxCell id="aqOJYriMutAaAsPxaJqA-32" style="edgeStyle=orthogonalEdgeStyle;rounded=0;orthogonalLoop=1;jettySize=auto;html=1;exitX=0;exitY=0.5;exitDx=0;exitDy=0;entryX=0.5;entryY=1;entryDx=0;entryDy=0;dashed=1;" parent="1" source="tjBaxz1AtbUdlpxrV566-253" target="tjBaxz1AtbUdlpxrV566-221" edge="1">
          <mxGeometry relative="1" as="geometry">
            <Array as="points">
              <mxPoint x="735.25" y="869" />
              <mxPoint x="61.25" y="869" />
            </Array>
          </mxGeometry>
        </mxCell>
        <mxCell id="aqOJYriMutAaAsPxaJqA-33" value="New Loop" style="text;html=1;align=center;verticalAlign=middle;resizable=0;points=[];autosize=1;strokeColor=none;fillColor=none;" parent="1" vertex="1">
          <mxGeometry x="61.25" y="839" width="80" height="30" as="geometry" />
        </mxCell>
        <mxCell id="1ieqDX-E3W4PUR27duya-24" style="edgeStyle=orthogonalEdgeStyle;rounded=0;orthogonalLoop=1;jettySize=auto;html=1;exitX=0.5;exitY=1;exitDx=0;exitDy=0;" parent="1" source="bFgOaYo5MmYKNW1yYCWf-1" target="1ieqDX-E3W4PUR27duya-21" edge="1">
          <mxGeometry relative="1" as="geometry">
            <Array as="points">
              <mxPoint x="350.25" y="1270" />
              <mxPoint x="259.25" y="1270" />
            </Array>
          </mxGeometry>
        </mxCell>
        <mxCell id="bFgOaYo5MmYKNW1yYCWf-1" value="Local Project" style="swimlane;startSize=20;horizontal=1;childLayout=flowLayout;flowOrientation=north;resizable=0;interRankCellSpacing=50;containerType=tree;fontSize=12;fillColor=#eeeeee;strokeColor=#36393d;" parent="1" vertex="1">
          <mxGeometry x="249.5" y="1049.68" width="202" height="180" as="geometry" />
        </mxCell>
        <mxCell id="bFgOaYo5MmYKNW1yYCWf-46" style="edgeStyle=orthogonalEdgeStyle;rounded=0;orthogonalLoop=1;jettySize=auto;html=1;noEdgeStyle=1;orthogonal=1;" parent="bFgOaYo5MmYKNW1yYCWf-1" source="bFgOaYo5MmYKNW1yYCWf-37" target="bFgOaYo5MmYKNW1yYCWf-40" edge="1">
          <mxGeometry relative="1" as="geometry">
            <Array as="points">
              <mxPoint x="101" y="92" />
              <mxPoint x="101" y="118" />
            </Array>
          </mxGeometry>
        </mxCell>
        <mxCell id="bFgOaYo5MmYKNW1yYCWf-37" value="EAE Projects" style="shape=module;align=left;spacingLeft=20;align=center;verticalAlign=top;whiteSpace=wrap;html=1;fillColor=#eeeeee;strokeColor=#36393d;" parent="bFgOaYo5MmYKNW1yYCWf-1" vertex="1">
          <mxGeometry x="51" y="40" width="100" height="40" as="geometry" />
        </mxCell>
        <mxCell id="bFgOaYo5MmYKNW1yYCWf-40" value="xml representation" style="html=1;dropTarget=0;whiteSpace=wrap;fillColor=#eeeeee;strokeColor=#36393d;" parent="bFgOaYo5MmYKNW1yYCWf-1" vertex="1">
          <mxGeometry x="20" y="130" width="162" height="30" as="geometry" />
        </mxCell>
        <mxCell id="bFgOaYo5MmYKNW1yYCWf-41" value="" style="shape=module;jettyWidth=8;jettyHeight=4;fillColor=#eeeeee;strokeColor=#36393d;" parent="bFgOaYo5MmYKNW1yYCWf-40" vertex="1">
          <mxGeometry x="1" width="20" height="20" relative="1" as="geometry">
            <mxPoint x="-27" y="7" as="offset" />
          </mxGeometry>
        </mxCell>
        <mxCell id="qbooU9UoFjID99h4peJY-46" style="edgeStyle=orthogonalEdgeStyle;rounded=0;orthogonalLoop=1;jettySize=auto;html=1;" parent="1" source="bFgOaYo5MmYKNW1yYCWf-20" target="qbooU9UoFjID99h4peJY-43" edge="1">
          <mxGeometry relative="1" as="geometry">
            <Array as="points">
              <mxPoint x="101.25" y="1160" />
              <mxPoint x="143.25" y="1160" />
            </Array>
          </mxGeometry>
        </mxCell>
        <mxCell id="bFgOaYo5MmYKNW1yYCWf-20" value="&lt;br&gt;&lt;br&gt;User Action" style="shape=actor;whiteSpace=wrap;html=1;fillColor=#cce5ff;strokeColor=#36393d;" parent="1" vertex="1">
          <mxGeometry x="81.25" y="1070" width="40" height="60" as="geometry" />
        </mxCell>
        <mxCell id="bFgOaYo5MmYKNW1yYCWf-62" style="edgeStyle=orthogonalEdgeStyle;rounded=0;orthogonalLoop=1;jettySize=auto;html=1;" parent="1" source="1ieqDX-E3W4PUR27duya-21" target="1ieqDX-E3W4PUR27duya-17" edge="1">
          <mxGeometry relative="1" as="geometry">
            <mxPoint x="283" y="1356.5" as="sourcePoint" />
            <mxPoint x="483.25" y="1348.6" as="targetPoint" />
            <Array as="points">
              <mxPoint x="259.25" y="1410" />
              <mxPoint x="583.25" y="1410" />
            </Array>
          </mxGeometry>
        </mxCell>
        <mxCell id="qbooU9UoFjID99h4peJY-44" style="edgeStyle=orthogonalEdgeStyle;rounded=0;orthogonalLoop=1;jettySize=auto;html=1;" parent="1" source="bFgOaYo5MmYKNW1yYCWf-52" target="qbooU9UoFjID99h4peJY-43" edge="1">
          <mxGeometry relative="1" as="geometry">
            <Array as="points">
              <mxPoint x="186.25" y="1160" />
              <mxPoint x="143.25" y="1160" />
            </Array>
          </mxGeometry>
        </mxCell>
        <mxCell id="bFgOaYo5MmYKNW1yYCWf-52" value="Every 5 &lt;br&gt;minutes&lt;div&gt;&lt;br/&gt;&lt;/div&gt;" style="points=[[0.25,0,0],[0.5,0,0],[0.75,0,0],[1,0.25,0],[1,0.5,0],[1,0.75,0],[0.75,1,0],[0.5,1,0],[0.25,1,0],[0,0.75,0],[0,0.5,0],[0,0.25,0]];shape=mxgraph.bpmn.task;whiteSpace=wrap;rectStyle=rounded;size=10;html=1;container=1;expand=0;collapsible=0;taskMarker=abstract;bpmnShapeType=subprocess;isLoopSub=1;outline=eventInt;symbol=timer;fillColor=#eeeeee;strokeColor=#36393d;" parent="1" vertex="1">
          <mxGeometry x="141.25" y="1070" width="90" height="50" as="geometry" />
        </mxCell>
        <mxCell id="1ieqDX-E3W4PUR27duya-17" value="" style="shape=mxgraph.mockup.containers.marginRect;rectMarginTop=10;strokeColor=#666666;strokeWidth=1;dashed=0;rounded=1;arcSize=5;recursiveResize=0;html=1;whiteSpace=wrap;" parent="1" vertex="1">
          <mxGeometry x="466.5" y="1257.35" width="234.13" height="131.75" as="geometry" />
        </mxCell>
        <mxCell id="1ieqDX-E3W4PUR27duya-18" value="&lt;font&gt;Agent 2: Technical Advisor&lt;/font&gt;" style="shape=rect;strokeColor=none;fillColor=#008cff;strokeWidth=1;dashed=0;rounded=1;arcSize=20;fontColor=#ffffff;fontSize=17;spacing=2;spacingTop=-2;align=left;autosize=1;spacingLeft=4;resizeWidth=0;resizeHeight=0;perimeter=none;html=1;whiteSpace=wrap;" parent="1ieqDX-E3W4PUR27duya-17" vertex="1">
          <mxGeometry x="7.5" width="215" height="30" as="geometry" />
        </mxCell>
        <mxCell id="qbooU9UoFjID99h4peJY-24" value="library, design guidelines" style="whiteSpace=wrap;html=1;rounded=1;arcSize=50;align=center;verticalAlign=middle;strokeWidth=1;autosize=1;spacing=4;treeFolding=1;treeMoving=1;newEdgeStyle={&quot;edgeStyle&quot;:&quot;entityRelationEdgeStyle&quot;,&quot;startArrow&quot;:&quot;none&quot;,&quot;endArrow&quot;:&quot;none&quot;,&quot;segment&quot;:10,&quot;curved&quot;:1,&quot;sourcePerimeterSpacing&quot;:0,&quot;targetPerimeterSpacing&quot;:0};" parent="1ieqDX-E3W4PUR27duya-17" vertex="1">
          <mxGeometry x="82.05999999999999" y="33" width="90" height="44.42" as="geometry" />
        </mxCell>
        <mxCell id="qbooU9UoFjID99h4peJY-36" style="edgeStyle=entityRelationEdgeStyle;rounded=0;orthogonalLoop=1;jettySize=auto;html=1;startArrow=none;endArrow=none;segment=10;curved=1;sourcePerimeterSpacing=0;targetPerimeterSpacing=0;" parent="1ieqDX-E3W4PUR27duya-17" source="qbooU9UoFjID99h4peJY-34" target="qbooU9UoFjID99h4peJY-35" edge="1">
          <mxGeometry relative="1" as="geometry" />
        </mxCell>
        <mxCell id="qbooU9UoFjID99h4peJY-34" value="Proc" style="whiteSpace=wrap;html=1;rounded=1;arcSize=50;align=center;verticalAlign=middle;strokeWidth=1;autosize=1;spacing=4;treeFolding=1;treeMoving=1;newEdgeStyle={&quot;edgeStyle&quot;:&quot;entityRelationEdgeStyle&quot;,&quot;startArrow&quot;:&quot;none&quot;,&quot;endArrow&quot;:&quot;none&quot;,&quot;segment&quot;:10,&quot;curved&quot;:1,&quot;sourcePerimeterSpacing&quot;:0,&quot;targetPerimeterSpacing&quot;:0};" parent="1ieqDX-E3W4PUR27duya-17" vertex="1">
          <mxGeometry x="12" y="81.42" width="48" height="30" as="geometry" />
        </mxCell>
        <mxCell id="qbooU9UoFjID99h4peJY-35" value="Transition log, design guidelines" style="whiteSpace=wrap;html=1;rounded=1;arcSize=50;align=center;verticalAlign=middle;strokeWidth=1;autosize=1;spacing=4;treeFolding=1;treeMoving=1;newEdgeStyle={&quot;edgeStyle&quot;:&quot;entityRelationEdgeStyle&quot;,&quot;startArrow&quot;:&quot;none&quot;,&quot;endArrow&quot;:&quot;none&quot;,&quot;segment&quot;:10,&quot;curved&quot;:1,&quot;sourcePerimeterSpacing&quot;:0,&quot;targetPerimeterSpacing&quot;:0};" parent="1ieqDX-E3W4PUR27duya-17" vertex="1">
          <mxGeometry x="116.63" y="81.42" width="105.87" height="48.58" as="geometry" />
        </mxCell>
        <mxCell id="qbooU9UoFjID99h4peJY-25" value="Asset" style="whiteSpace=wrap;html=1;rounded=1;arcSize=50;align=center;verticalAlign=middle;strokeWidth=1;autosize=1;spacing=4;treeFolding=1;treeMoving=1;newEdgeStyle={&quot;edgeStyle&quot;:&quot;entityRelationEdgeStyle&quot;,&quot;startArrow&quot;:&quot;none&quot;,&quot;endArrow&quot;:&quot;none&quot;,&quot;segment&quot;:10,&quot;curved&quot;:1,&quot;sourcePerimeterSpacing&quot;:0,&quot;targetPerimeterSpacing&quot;:0};" parent="1ieqDX-E3W4PUR27duya-17" vertex="1">
          <mxGeometry x="7" y="44.42" width="53" height="30" as="geometry" />
        </mxCell>
        <mxCell id="qbooU9UoFjID99h4peJY-26" style="edgeStyle=entityRelationEdgeStyle;rounded=0;orthogonalLoop=1;jettySize=auto;html=1;startArrow=none;endArrow=none;segment=10;curved=1;sourcePerimeterSpacing=0;targetPerimeterSpacing=0;exitX=1;exitY=0.5;exitDx=0;exitDy=0;" parent="1ieqDX-E3W4PUR27duya-17" source="qbooU9UoFjID99h4peJY-25" target="qbooU9UoFjID99h4peJY-24" edge="1">
          <mxGeometry relative="1" as="geometry" />
        </mxCell>
        <mxCell id="1ieqDX-E3W4PUR27duya-21" value="&lt;ul&gt;&lt;li&gt;&lt;br&gt;&lt;/li&gt;&lt;li&gt;&lt;br&gt;&lt;/li&gt;&lt;li&gt;Extract process description&lt;/li&gt;&lt;li&gt;Identify type of CAT&lt;/li&gt;&lt;li&gt;Find potential bug&lt;/li&gt;&lt;/ul&gt;" style="shape=mxgraph.mockup.containers.marginRect;rectMarginTop=10;strokeColor=#666666;strokeWidth=1;dashed=0;rounded=1;arcSize=5;recursiveResize=0;html=1;whiteSpace=wrap;align=left;" parent="1" vertex="1">
          <mxGeometry x="145" y="1312" width="228.25" height="77.1" as="geometry" />
        </mxCell>
        <mxCell id="1ieqDX-E3W4PUR27duya-22" value="Agent 1: Project Analyzer" style="shape=rect;strokeColor=none;fillColor=#008cff;strokeWidth=1;dashed=0;rounded=1;arcSize=20;fontColor=#ffffff;fontSize=17;spacing=2;spacingTop=-2;align=left;autosize=1;spacingLeft=4;resizeWidth=0;resizeHeight=0;perimeter=none;html=1;whiteSpace=wrap;" parent="1ieqDX-E3W4PUR27duya-21" vertex="1">
          <mxGeometry x="10" width="205" height="30" as="geometry" />
        </mxCell>
        <mxCell id="1ieqDX-E3W4PUR27duya-29" style="edgeStyle=orthogonalEdgeStyle;rounded=0;orthogonalLoop=1;jettySize=auto;html=1;" parent="1" source="bFgOaYo5MmYKNW1yYCWf-69" target="1ieqDX-E3W4PUR27duya-17" edge="1">
          <mxGeometry relative="1" as="geometry" />
        </mxCell>
        <mxCell id="bFgOaYo5MmYKNW1yYCWf-69" value="Knowledge Base" style="shape=datastore;whiteSpace=wrap;html=1;fillColor=#eeeeee;strokeColor=#36393d;" parent="1" vertex="1">
          <mxGeometry x="539.69" y="1120" width="87.75" height="60" as="geometry" />
        </mxCell>
        <mxCell id="qbooU9UoFjID99h4peJY-16" value="Project Componet" style="shape=folder;fontStyle=1;tabWidth=110;tabHeight=30;tabPosition=left;html=1;boundedLbl=1;labelInHeader=1;container=1;collapsible=0;whiteSpace=wrap;" parent="1" vertex="1">
          <mxGeometry x="325.63" y="1420" width="156.75" height="83" as="geometry" />
        </mxCell>
        <mxCell id="qbooU9UoFjID99h4peJY-17" value="&lt;ul&gt;&lt;li&gt;&lt;span style=&quot;background-color: transparent; color: light-dark(rgb(0, 0, 0), rgb(255, 255, 255));&quot;&gt;Key Words/Terms&lt;/span&gt;&lt;/li&gt;&lt;li&gt;Poject Components&lt;/li&gt;&lt;li&gt;CAT Types&lt;/li&gt;&lt;/ul&gt;" style="html=1;strokeColor=none;resizeWidth=1;resizeHeight=1;fillColor=none;part=1;connectable=0;allowArrows=0;deletable=0;whiteSpace=wrap;align=left;" parent="qbooU9UoFjID99h4peJY-16" vertex="1">
          <mxGeometry width="156.75" height="50" relative="1" as="geometry">
            <mxPoint y="30" as="offset" />
          </mxGeometry>
        </mxCell>
        <mxCell id="qbooU9UoFjID99h4peJY-48" style="edgeStyle=orthogonalEdgeStyle;rounded=0;orthogonalLoop=1;jettySize=auto;html=1;" parent="1" source="qbooU9UoFjID99h4peJY-43" target="1ieqDX-E3W4PUR27duya-21" edge="1">
          <mxGeometry relative="1" as="geometry">
            <Array as="points">
              <mxPoint x="143.25" y="1270" />
              <mxPoint x="259.25" y="1270" />
            </Array>
          </mxGeometry>
        </mxCell>
        <mxCell id="qbooU9UoFjID99h4peJY-43" value="" style="shape=collate;html=1;" parent="1" vertex="1">
          <mxGeometry x="123" y="1189.68" width="40" height="40" as="geometry" />
        </mxCell>
        <mxCell id="z77gv_-yLORl-nQfKJ2V-1" value="Proactive Sugggestion&lt;div&gt;&lt;br/&gt;&lt;/div&gt;" style="whiteSpace=wrap;html=1;shape=mxgraph.basic.cloud_callout;fillColor=#b1ddf0;strokeColor=#10739e;" parent="1" vertex="1">
          <mxGeometry x="703.25" y="1250" width="116.75" height="79.99" as="geometry" />
        </mxCell>
        <mxCell id="IU5elaJWD02RkQSWNc3Q-31" style="edgeStyle=orthogonalEdgeStyle;rounded=0;orthogonalLoop=1;jettySize=auto;html=1;entryX=0.5;entryY=0;entryDx=0;entryDy=0;fillColor=#1ba1e2;strokeColor=#006EAF;" edge="1" parent="1" source="IU5elaJWD02RkQSWNc3Q-1" target="IU5elaJWD02RkQSWNc3Q-5">
          <mxGeometry relative="1" as="geometry" />
        </mxCell>
        <mxCell id="IU5elaJWD02RkQSWNc3Q-1" value="User Query" style="rounded=0;whiteSpace=wrap;html=1;fillColor=#1ba1e2;fontColor=#ffffff;strokeColor=#006EAF;" vertex="1" parent="1">
          <mxGeometry x="1212.37" y="1040" width="80" height="30" as="geometry" />
        </mxCell>
        <mxCell id="IU5elaJWD02RkQSWNc3Q-24" style="edgeStyle=orthogonalEdgeStyle;rounded=0;orthogonalLoop=1;jettySize=auto;html=1;entryX=0.5;entryY=0;entryDx=0;entryDy=0;" edge="1" parent="1" source="IU5elaJWD02RkQSWNc3Q-5" target="IU5elaJWD02RkQSWNc3Q-20">
          <mxGeometry relative="1" as="geometry">
            <Array as="points">
              <mxPoint x="1252.37" y="1220" />
              <mxPoint x="1071.37" y="1220" />
            </Array>
          </mxGeometry>
        </mxCell>
        <mxCell id="IU5elaJWD02RkQSWNc3Q-27" style="edgeStyle=orthogonalEdgeStyle;rounded=0;orthogonalLoop=1;jettySize=auto;html=1;entryX=0;entryY=0.5;entryDx=0;entryDy=0;" edge="1" parent="1" source="IU5elaJWD02RkQSWNc3Q-5" target="IU5elaJWD02RkQSWNc3Q-15">
          <mxGeometry relative="1" as="geometry" />
        </mxCell>
        <mxCell id="IU5elaJWD02RkQSWNc3Q-28" style="edgeStyle=orthogonalEdgeStyle;rounded=0;orthogonalLoop=1;jettySize=auto;html=1;entryX=0;entryY=0.5;entryDx=0;entryDy=0;" edge="1" parent="1" source="IU5elaJWD02RkQSWNc3Q-5" target="IU5elaJWD02RkQSWNc3Q-16">
          <mxGeometry relative="1" as="geometry" />
        </mxCell>
        <mxCell id="IU5elaJWD02RkQSWNc3Q-5" value="&lt;b&gt;Orchestrator&lt;/b&gt;" style="swimlane;fontStyle=0;childLayout=stackLayout;horizontal=1;startSize=30;horizontalStack=0;resizeParent=1;resizeParentMax=0;resizeLast=0;collapsible=1;marginBottom=0;whiteSpace=wrap;html=1;fillColor=#1ba1e2;fontColor=#ffffff;strokeColor=#006EAF;" vertex="1" parent="1">
          <mxGeometry x="1137.12" y="1105" width="230" height="90" as="geometry" />
        </mxCell>
        <mxCell id="IU5elaJWD02RkQSWNc3Q-6" value="&lt;b&gt;Planning&lt;/b&gt;: Break down into subtasks" style="text;strokeColor=#6c8ebf;fillColor=#dae8fc;align=left;verticalAlign=middle;spacingLeft=4;spacingRight=4;overflow=hidden;points=[[0,0.5],[1,0.5]];portConstraint=eastwest;rotatable=0;whiteSpace=wrap;html=1;" vertex="1" parent="IU5elaJWD02RkQSWNc3Q-5">
          <mxGeometry y="30" width="230" height="30" as="geometry" />
        </mxCell>
        <mxCell id="IU5elaJWD02RkQSWNc3Q-7" value="&lt;b&gt;Tools&lt;/b&gt;: are tools required for subtasks" style="text;strokeColor=#6c8ebf;fillColor=#dae8fc;align=left;verticalAlign=middle;spacingLeft=4;spacingRight=4;overflow=hidden;points=[[0,0.5],[1,0.5]];portConstraint=eastwest;rotatable=0;whiteSpace=wrap;html=1;" vertex="1" parent="IU5elaJWD02RkQSWNc3Q-5">
          <mxGeometry y="60" width="230" height="30" as="geometry" />
        </mxCell>
        <mxCell id="IU5elaJWD02RkQSWNc3Q-13" value="Factsheet Search" style="rounded=0;whiteSpace=wrap;html=1;fillColor=#1ba1e2;strokeColor=#006EAF;fontColor=#ffffff;" vertex="1" parent="1">
          <mxGeometry x="1413.37" y="1080" width="119" height="20" as="geometry" />
        </mxCell>
        <mxCell id="IU5elaJWD02RkQSWNc3Q-15" value="Market Search" style="rounded=0;whiteSpace=wrap;html=1;fillColor=#1ba1e2;strokeColor=#006EAF;fontColor=#ffffff;" vertex="1" parent="1">
          <mxGeometry x="1413.37" y="1110" width="119" height="20" as="geometry" />
        </mxCell>
        <mxCell id="IU5elaJWD02RkQSWNc3Q-16" value="Web Search" style="rounded=0;whiteSpace=wrap;html=1;fillColor=#1ba1e2;strokeColor=#006EAF;fontColor=#ffffff;" vertex="1" parent="1">
          <mxGeometry x="1413.37" y="1139.68" width="119" height="20" as="geometry" />
        </mxCell>
        <mxCell id="IU5elaJWD02RkQSWNc3Q-17" value="Stock Universe" style="rounded=0;whiteSpace=wrap;html=1;fillColor=#1ba1e2;strokeColor=#006EAF;fontColor=#ffffff;" vertex="1" parent="1">
          <mxGeometry x="1413.37" y="1169.68" width="119" height="20" as="geometry" />
        </mxCell>
        <mxCell id="IU5elaJWD02RkQSWNc3Q-18" value="Pitch Generator" style="rounded=0;whiteSpace=wrap;html=1;fillColor=#1ba1e2;strokeColor=#006EAF;fontColor=#ffffff;" vertex="1" parent="1">
          <mxGeometry x="1413.37" y="1200" width="119" height="20" as="geometry" />
        </mxCell>
        <mxCell id="IU5elaJWD02RkQSWNc3Q-25" style="edgeStyle=orthogonalEdgeStyle;rounded=0;orthogonalLoop=1;jettySize=auto;html=1;entryX=0;entryY=0.5;entryDx=0;entryDy=0;" edge="1" parent="1" source="IU5elaJWD02RkQSWNc3Q-20" target="IU5elaJWD02RkQSWNc3Q-6">
          <mxGeometry relative="1" as="geometry">
            <Array as="points">
              <mxPoint x="982.37" y="1265" />
              <mxPoint x="982.37" y="1150" />
            </Array>
          </mxGeometry>
        </mxCell>
        <mxCell id="IU5elaJWD02RkQSWNc3Q-20" value="Tool execution" style="rhombus;whiteSpace=wrap;html=1;fillColor=#1ba1e2;fontColor=#ffffff;strokeColor=#006EAF;" vertex="1" parent="1">
          <mxGeometry x="1011.12" y="1240" width="121.25" height="50" as="geometry" />
        </mxCell>
        <mxCell id="IU5elaJWD02RkQSWNc3Q-26" style="edgeStyle=orthogonalEdgeStyle;rounded=0;orthogonalLoop=1;jettySize=auto;html=1;exitX=1;exitY=0.5;exitDx=0;exitDy=0;entryX=0;entryY=0.75;entryDx=0;entryDy=0;" edge="1" parent="1" source="IU5elaJWD02RkQSWNc3Q-6" target="IU5elaJWD02RkQSWNc3Q-13">
          <mxGeometry relative="1" as="geometry" />
        </mxCell>
        <mxCell id="IU5elaJWD02RkQSWNc3Q-29" style="edgeStyle=orthogonalEdgeStyle;rounded=0;orthogonalLoop=1;jettySize=auto;html=1;entryX=0;entryY=0.5;entryDx=0;entryDy=0;" edge="1" parent="1" source="IU5elaJWD02RkQSWNc3Q-6" target="IU5elaJWD02RkQSWNc3Q-17">
          <mxGeometry relative="1" as="geometry" />
        </mxCell>
        <mxCell id="IU5elaJWD02RkQSWNc3Q-30" style="edgeStyle=orthogonalEdgeStyle;rounded=0;orthogonalLoop=1;jettySize=auto;html=1;entryX=0;entryY=0.5;entryDx=0;entryDy=0;" edge="1" parent="1" source="IU5elaJWD02RkQSWNc3Q-6" target="IU5elaJWD02RkQSWNc3Q-18">
          <mxGeometry relative="1" as="geometry" />
        </mxCell>
        <mxCell id="IU5elaJWD02RkQSWNc3Q-32" value="&lt;b&gt;Factsheet Search&lt;/b&gt;" style="swimlane;fontStyle=0;childLayout=stackLayout;horizontal=1;startSize=30;horizontalStack=0;resizeParent=1;resizeParentMax=0;resizeLast=0;collapsible=1;marginBottom=0;whiteSpace=wrap;html=1;fillColor=#1ba1e2;fontColor=#ffffff;strokeColor=#006EAF;" vertex="1" parent="1">
          <mxGeometry x="919.25" y="1319.85" width="230" height="60" as="geometry" />
        </mxCell>
        <mxCell id="IU5elaJWD02RkQSWNc3Q-33" value="Which funds include Oklo Inc.?" style="text;strokeColor=#6c8ebf;fillColor=#dae8fc;align=left;verticalAlign=middle;spacingLeft=4;spacingRight=4;overflow=hidden;points=[[0,0.5],[1,0.5]];portConstraint=eastwest;rotatable=0;whiteSpace=wrap;html=1;" vertex="1" parent="IU5elaJWD02RkQSWNc3Q-32">
          <mxGeometry y="30" width="230" height="30" as="geometry" />
        </mxCell>
        <mxCell id="IU5elaJWD02RkQSWNc3Q-35" value="&lt;b&gt;Market Search&lt;/b&gt;" style="swimlane;fontStyle=0;childLayout=stackLayout;horizontal=1;startSize=30;horizontalStack=0;resizeParent=1;resizeParentMax=0;resizeLast=0;collapsible=1;marginBottom=0;whiteSpace=wrap;html=1;fillColor=#1ba1e2;fontColor=#ffffff;strokeColor=#006EAF;" vertex="1" parent="1">
          <mxGeometry x="919.25" y="1400" width="230" height="60" as="geometry" />
        </mxCell>
        <mxCell id="IU5elaJWD02RkQSWNc3Q-36" value="Perform a market research about the NLR ETF." style="text;strokeColor=#6c8ebf;fillColor=#dae8fc;align=left;verticalAlign=middle;spacingLeft=4;spacingRight=4;overflow=hidden;points=[[0,0.5],[1,0.5]];portConstraint=eastwest;rotatable=0;whiteSpace=wrap;html=1;" vertex="1" parent="IU5elaJWD02RkQSWNc3Q-35">
          <mxGeometry y="30" width="230" height="30" as="geometry" />
        </mxCell>
        <mxCell id="IU5elaJWD02RkQSWNc3Q-37" value="&lt;b&gt;Web Search&lt;/b&gt;" style="swimlane;fontStyle=0;childLayout=stackLayout;horizontal=1;startSize=30;horizontalStack=0;resizeParent=1;resizeParentMax=0;resizeLast=0;collapsible=1;marginBottom=0;whiteSpace=wrap;html=1;fillColor=#1ba1e2;fontColor=#ffffff;strokeColor=#006EAF;" vertex="1" parent="1">
          <mxGeometry x="919.25" y="1480" width="230" height="60" as="geometry" />
        </mxCell>
        <mxCell id="IU5elaJWD02RkQSWNc3Q-38" value="What are current news about the NLR ETF?" style="text;strokeColor=#6c8ebf;fillColor=#dae8fc;align=left;verticalAlign=middle;spacingLeft=4;spacingRight=4;overflow=hidden;points=[[0,0.5],[1,0.5]];portConstraint=eastwest;rotatable=0;whiteSpace=wrap;html=1;" vertex="1" parent="IU5elaJWD02RkQSWNc3Q-37">
          <mxGeometry y="30" width="230" height="30" as="geometry" />
        </mxCell>
        <mxCell id="IU5elaJWD02RkQSWNc3Q-39" value="&lt;b&gt;Stock Universe&lt;/b&gt;" style="swimlane;fontStyle=0;childLayout=stackLayout;horizontal=1;startSize=30;horizontalStack=0;resizeParent=1;resizeParentMax=0;resizeLast=0;collapsible=1;marginBottom=0;whiteSpace=wrap;html=1;fillColor=#1ba1e2;fontColor=#ffffff;strokeColor=#006EAF;" vertex="1" parent="1">
          <mxGeometry x="919.25" y="1560" width="230" height="60" as="geometry" />
        </mxCell>
        <mxCell id="IU5elaJWD02RkQSWNc3Q-40" value="Outline our recommendation for NLR ETF&amp;gt;" style="text;strokeColor=#6c8ebf;fillColor=#dae8fc;align=left;verticalAlign=middle;spacingLeft=4;spacingRight=4;overflow=hidden;points=[[0,0.5],[1,0.5]];portConstraint=eastwest;rotatable=0;whiteSpace=wrap;html=1;" vertex="1" parent="IU5elaJWD02RkQSWNc3Q-39">
          <mxGeometry y="30" width="230" height="30" as="geometry" />
        </mxCell>
        <mxCell id="IU5elaJWD02RkQSWNc3Q-65" value="" style="childLayout=tableLayout;recursiveResize=0;shadow=0;fillColor=#dae8fc;strokeColor=#6c8ebf;" vertex="1" parent="1">
          <mxGeometry x="1200" y="1257.35" width="410" height="187" as="geometry" />
        </mxCell>
        <mxCell id="IU5elaJWD02RkQSWNc3Q-66" value="" style="shape=tableRow;horizontal=0;startSize=0;swimlaneHead=0;swimlaneBody=0;top=0;left=0;bottom=0;right=0;dropTarget=0;collapsible=0;recursiveResize=0;expand=0;fontStyle=0;fillColor=#dae8fc;strokeColor=#6c8ebf;" vertex="1" parent="IU5elaJWD02RkQSWNc3Q-65">
          <mxGeometry width="410" height="47" as="geometry" />
        </mxCell>
        <mxCell id="IU5elaJWD02RkQSWNc3Q-67" value="System" style="connectable=0;recursiveResize=0;strokeColor=#6c8ebf;fillColor=#dae8fc;align=center;whiteSpace=wrap;html=1;" vertex="1" parent="IU5elaJWD02RkQSWNc3Q-66">
          <mxGeometry width="80" height="47" as="geometry">
            <mxRectangle width="80" height="47" as="alternateBounds" />
          </mxGeometry>
        </mxCell>
        <mxCell id="IU5elaJWD02RkQSWNc3Q-68" value="General Instruction&lt;br&gt;Toole Definition" style="connectable=0;recursiveResize=0;strokeColor=#6c8ebf;fillColor=#dae8fc;align=center;whiteSpace=wrap;html=1;rowspan=1;colspan=2;" vertex="1" parent="IU5elaJWD02RkQSWNc3Q-66">
          <mxGeometry x="80" width="330" height="47" as="geometry">
            <mxRectangle width="194" height="47" as="alternateBounds" />
          </mxGeometry>
        </mxCell>
        <mxCell id="IU5elaJWD02RkQSWNc3Q-69" value="Value 3" style="connectable=0;recursiveResize=0;strokeColor=none;fillColor=none;align=center;whiteSpace=wrap;html=1;" vertex="1" visible="0" parent="IU5elaJWD02RkQSWNc3Q-66">
          <mxGeometry x="274" width="136" height="47" as="geometry">
            <mxRectangle width="136" height="47" as="alternateBounds" />
          </mxGeometry>
        </mxCell>
        <mxCell id="IU5elaJWD02RkQSWNc3Q-70" style="shape=tableRow;horizontal=0;startSize=0;swimlaneHead=0;swimlaneBody=0;top=0;left=0;bottom=0;right=0;dropTarget=0;collapsible=0;recursiveResize=0;expand=0;fontStyle=0;fillColor=#dae8fc;strokeColor=#6c8ebf;" vertex="1" parent="IU5elaJWD02RkQSWNc3Q-65">
          <mxGeometry y="47" width="410" height="46" as="geometry" />
        </mxCell>
        <mxCell id="IU5elaJWD02RkQSWNc3Q-71" value="User" style="connectable=0;recursiveResize=0;strokeColor=#6c8ebf;fillColor=#dae8fc;align=center;whiteSpace=wrap;html=1;" vertex="1" parent="IU5elaJWD02RkQSWNc3Q-70">
          <mxGeometry width="80" height="46" as="geometry">
            <mxRectangle width="80" height="46" as="alternateBounds" />
          </mxGeometry>
        </mxCell>
        <mxCell id="IU5elaJWD02RkQSWNc3Q-72" value="User Query" style="connectable=0;recursiveResize=0;strokeColor=#6c8ebf;fillColor=#dae8fc;align=center;whiteSpace=wrap;html=1;rowspan=1;colspan=2;" vertex="1" parent="IU5elaJWD02RkQSWNc3Q-70">
          <mxGeometry x="80" width="330" height="46" as="geometry">
            <mxRectangle width="194" height="46" as="alternateBounds" />
          </mxGeometry>
        </mxCell>
        <mxCell id="IU5elaJWD02RkQSWNc3Q-73" value="Value 6" style="connectable=0;recursiveResize=0;strokeColor=none;fillColor=none;align=center;whiteSpace=wrap;html=1;" vertex="1" visible="0" parent="IU5elaJWD02RkQSWNc3Q-70">
          <mxGeometry x="274" width="136" height="46" as="geometry">
            <mxRectangle width="136" height="46" as="alternateBounds" />
          </mxGeometry>
        </mxCell>
        <mxCell id="IU5elaJWD02RkQSWNc3Q-74" style="shape=tableRow;horizontal=0;startSize=0;swimlaneHead=0;swimlaneBody=0;top=0;left=0;bottom=0;right=0;dropTarget=0;collapsible=0;recursiveResize=0;expand=0;fontStyle=0;fillColor=#dae8fc;strokeColor=#6c8ebf;" vertex="1" parent="IU5elaJWD02RkQSWNc3Q-65">
          <mxGeometry y="93" width="410" height="47" as="geometry" />
        </mxCell>
        <mxCell id="IU5elaJWD02RkQSWNc3Q-75" value="Assitant" style="connectable=0;recursiveResize=0;strokeColor=#6c8ebf;fillColor=#dae8fc;align=center;whiteSpace=wrap;html=1;" vertex="1" parent="IU5elaJWD02RkQSWNc3Q-74">
          <mxGeometry width="80" height="47" as="geometry">
            <mxRectangle width="80" height="47" as="alternateBounds" />
          </mxGeometry>
        </mxCell>
        <mxCell id="IU5elaJWD02RkQSWNc3Q-76" value="Tool Call - Factsheet Search ......" style="connectable=0;recursiveResize=0;strokeColor=#6c8ebf;fillColor=#dae8fc;align=center;whiteSpace=wrap;html=1;rowspan=1;colspan=2;" vertex="1" parent="IU5elaJWD02RkQSWNc3Q-74">
          <mxGeometry x="80" width="330" height="47" as="geometry">
            <mxRectangle width="194" height="47" as="alternateBounds" />
          </mxGeometry>
        </mxCell>
        <mxCell id="IU5elaJWD02RkQSWNc3Q-77" value="Value 9" style="connectable=0;recursiveResize=0;strokeColor=none;fillColor=none;align=center;whiteSpace=wrap;html=1;" vertex="1" visible="0" parent="IU5elaJWD02RkQSWNc3Q-74">
          <mxGeometry x="274" width="136" height="47" as="geometry">
            <mxRectangle width="136" height="47" as="alternateBounds" />
          </mxGeometry>
        </mxCell>
        <mxCell id="IU5elaJWD02RkQSWNc3Q-78" style="shape=tableRow;horizontal=0;startSize=0;swimlaneHead=0;swimlaneBody=0;top=0;left=0;bottom=0;right=0;dropTarget=0;collapsible=0;recursiveResize=0;expand=0;fontStyle=0;fillColor=#dae8fc;strokeColor=#6c8ebf;" vertex="1" parent="IU5elaJWD02RkQSWNc3Q-65">
          <mxGeometry y="140" width="410" height="47" as="geometry" />
        </mxCell>
        <mxCell id="IU5elaJWD02RkQSWNc3Q-79" value="Tool" style="connectable=0;recursiveResize=0;strokeColor=#6c8ebf;fillColor=#dae8fc;align=center;whiteSpace=wrap;html=1;" vertex="1" parent="IU5elaJWD02RkQSWNc3Q-78">
          <mxGeometry width="80" height="47" as="geometry">
            <mxRectangle width="80" height="47" as="alternateBounds" />
          </mxGeometry>
        </mxCell>
        <mxCell id="IU5elaJWD02RkQSWNc3Q-80" value="Tool Response - Factsheet Search, Market Overview, Web Data, Recommendation ......" style="connectable=0;recursiveResize=0;strokeColor=#6c8ebf;fillColor=#dae8fc;align=center;whiteSpace=wrap;html=1;rowspan=1;colspan=2;" vertex="1" parent="IU5elaJWD02RkQSWNc3Q-78">
          <mxGeometry x="80" width="330" height="47" as="geometry">
            <mxRectangle width="194" height="47" as="alternateBounds" />
          </mxGeometry>
        </mxCell>
        <mxCell id="IU5elaJWD02RkQSWNc3Q-81" style="connectable=0;recursiveResize=0;strokeColor=none;fillColor=none;align=center;whiteSpace=wrap;html=1;" vertex="1" visible="0" parent="IU5elaJWD02RkQSWNc3Q-78">
          <mxGeometry x="274" width="136" height="47" as="geometry">
            <mxRectangle width="136" height="47" as="alternateBounds" />
          </mxGeometry>
        </mxCell>
      </root>
    </mxGraphModel>
  </diagram>
</mxfile>
